<svg width="24" height="24" viewBox="0 0 24 24" fill="none" xmlns="http://www.w3.org/2000/svg">
<path d="M2 10.5C2 15.194 6.477 19 12 19C12.6867 18.9993 13.3533 18.9427 14 18.83V22C15.67 20.365 18.5 17.5 20.256 15.297C21.356 13.932 22 12.28 22 10.5C22 5.806 17.523 2 12 2C6.477 2 2 5.806 2 10.5Z" stroke="#003A6E" stroke-width="1.5" stroke-linecap="round" stroke-linejoin="round"/>
<path d="M6 8.5V12.5H7M9 8.5V12.5M11.1 12.5V8.5L13.5 12.5V8.5M17.5 8.5H15.6V10.5M15.6 10.5V12.5H17.5M15.6 10.5H17.04" stroke="#003A6E" stroke-width="1.5" stroke-linecap="round" stroke-linejoin="round"/>
</svg>
