<svg width="48" height="48" viewBox="0 0 48 48" fill="none" xmlns="http://www.w3.org/2000/svg">
<path d="M14.3078 18.5045C15.5989 18.5045 16.8371 17.9916 17.7501 17.0786C18.663 16.1657 19.1759 14.9275 19.1759 13.6364C19.1759 12.3453 18.663 11.1071 17.7501 10.1942C16.8371 9.28127 15.5989 8.76839 14.3078 8.76839C13.0168 8.76839 11.7786 9.28127 10.8656 10.1942C9.95269 11.1071 9.43981 12.3453 9.43981 13.6364C9.43981 14.9275 9.95269 16.1657 10.8656 17.0786C11.7786 17.9916 13.0168 18.5045 14.3078 18.5045ZM14.3078 22.3989C13.1571 22.3989 12.0177 22.1722 10.9546 21.7319C9.89149 21.2915 8.92552 20.6461 8.11185 19.8324C7.29818 19.0188 6.65274 18.0528 6.21239 16.9897C5.77203 15.9266 5.54538 14.7871 5.54538 13.6364C5.54538 12.4857 5.77203 11.3463 6.21239 10.2832C6.65274 9.22007 7.29818 8.2541 8.11185 7.44043C8.92552 6.62676 9.89149 5.98132 10.9546 5.54097C12.0177 5.10061 13.1571 4.87396 14.3078 4.87396C16.6318 4.87396 18.8606 5.79715 20.5038 7.44043C22.1471 9.08371 23.0703 11.3125 23.0703 13.6364C23.0703 15.9604 22.1471 18.1891 20.5038 19.8324C18.8606 21.4757 16.6318 22.3989 14.3078 22.3989ZM34.7536 26.2933C35.7865 26.2933 36.777 25.883 37.5074 25.1527C38.2377 24.4223 38.648 23.4318 38.648 22.3989C38.648 21.366 38.2377 20.3755 37.5074 19.6451C36.777 18.9148 35.7865 18.5045 34.7536 18.5045C33.7207 18.5045 32.7302 18.9148 31.9998 19.6451C31.2695 20.3755 30.8592 21.366 30.8592 22.3989C30.8592 23.4318 31.2695 24.4223 31.9998 25.1527C32.7302 25.883 33.7207 26.2933 34.7536 26.2933ZM34.7536 30.1877C32.6879 30.1877 30.7067 29.3671 29.246 27.9064C27.7853 26.4457 26.9647 24.4646 26.9647 22.3989C26.9647 20.3332 27.7853 18.352 29.246 16.8913C30.7067 15.4306 32.6879 14.61 34.7536 14.61C36.8193 14.61 38.8004 15.4306 40.2611 16.8913C41.7218 18.352 42.5424 20.3332 42.5424 22.3989C42.5424 24.4646 41.7218 26.4457 40.2611 27.9064C38.8004 29.3671 36.8193 30.1877 34.7536 30.1877ZM39.6216 41.871V40.8974C39.6216 39.6063 39.1087 38.3681 38.1958 37.4552C37.2829 36.5423 36.0447 36.0294 34.7536 36.0294C33.4625 36.0294 32.2243 36.5423 31.3114 37.4552C30.3984 38.3681 29.8856 39.6063 29.8856 40.8974V41.871H25.9911V40.8974C25.9911 39.7467 26.2178 38.6073 26.6581 37.5442C27.0985 36.4811 27.7439 35.5151 28.5576 34.7014C29.3713 33.8878 30.3372 33.2423 31.4003 32.802C32.4635 32.3616 33.6029 32.135 34.7536 32.135C35.9043 32.135 37.0437 32.3616 38.1068 32.802C39.17 33.2423 40.1359 33.8878 40.9496 34.7014C41.7633 35.5151 42.4087 36.4811 42.8491 37.5442C43.2894 38.6073 43.5161 39.7467 43.5161 40.8974V41.871H39.6216ZM20.1495 41.871V34.0822C20.1495 33.315 19.9984 32.5554 19.7048 31.8467C19.4113 31.1379 18.981 30.494 18.4385 29.9515C17.8961 29.4091 17.2521 28.9788 16.5433 28.6852C15.8346 28.3916 15.075 28.2405 14.3078 28.2405C13.5407 28.2405 12.7811 28.3916 12.0723 28.6852C11.3636 28.9788 10.7196 29.4091 10.1772 29.9515C9.63474 30.494 9.20444 31.1379 8.91087 31.8467C8.6173 32.5554 8.46621 33.315 8.46621 34.0822V41.871H4.57178V34.0822C4.57178 31.5 5.59754 29.0236 7.42341 27.1977C9.24927 25.3719 11.7257 24.3461 14.3078 24.3461C16.89 24.3461 19.3664 25.3719 21.1923 27.1977C23.0182 29.0236 24.0439 31.5 24.0439 34.0822V41.871H20.1495Z" fill="#003A6E"/>
</svg>
