<svg width="48" height="48" viewBox="0 0 48 48" fill="none" xmlns="http://www.w3.org/2000/svg">
<path d="M23.9557 12.3415L23.4986 12.4802L5.2435 18.5964L1.09302 19.9648L3.51 20.7389V33.5174C2.63813 34.0242 2.04959 34.9486 2.04959 36.0293C2.04959 36.804 2.35732 37.5469 2.90508 38.0947C3.45284 38.6424 4.19576 38.9502 4.97041 38.9502C5.74506 38.9502 6.48798 38.6424 7.03574 38.0947C7.5835 37.5469 7.89123 36.804 7.89123 36.0293C7.89123 34.9486 7.30268 34.0242 6.43082 33.5174V21.7465L9.35164 22.7031V30.1877C9.35164 31.3852 10.0818 32.3783 10.9493 33.0647C11.8168 33.7467 12.8946 34.2287 14.1885 34.6609C16.7793 35.5226 20.1937 36.0293 23.9557 36.0293C27.7178 36.0293 31.1322 35.524 33.723 34.6595C35.0169 34.2287 36.0947 33.7467 36.9622 33.0633C37.8296 32.3783 38.5599 31.3852 38.5599 30.1877V22.7031L42.668 21.3332L46.8185 19.9648L42.6665 18.595L24.4114 12.4802L23.9557 12.3415ZM23.9557 15.4011L37.6471 19.9648L23.9557 24.5286L10.2644 19.9648L23.9557 15.4011ZM12.2725 23.7079L23.5001 27.4494L23.9557 27.5867L24.4129 27.448L35.639 23.7064V30.1877C35.639 30.2023 35.6449 30.3717 35.1819 30.7354C34.7204 31.1005 33.8924 31.5605 32.8088 31.9227C30.6444 32.6427 27.4534 33.1085 23.9557 33.1085C20.4581 33.1085 17.2671 32.6441 15.1013 31.9212C14.0206 31.5605 13.1911 31.099 12.7296 30.7354C12.2652 30.3703 12.2725 30.2023 12.2725 30.1877V23.7079Z" fill="#003A6E"/>
</svg>
