<svg width="24" height="24" viewBox="0 0 24 24" fill="none" xmlns="http://www.w3.org/2000/svg">
<path d="M12 3C11.7045 3 11.4119 3.0582 11.139 3.17127C10.866 3.28434 10.6179 3.45008 10.409 3.65901C10.2001 3.86794 10.0343 4.11598 9.92127 4.38896C9.8082 4.66194 9.75 4.95453 9.75 5.25C9.75 5.54547 9.8082 5.83806 9.92127 6.11104C10.0343 6.38402 10.2001 6.63206 10.409 6.84099C10.6179 7.04992 10.866 7.21566 11.139 7.32873C11.4119 7.4418 11.7045 7.5 12 7.5C12.5967 7.5 13.169 7.26295 13.591 6.84099C14.0129 6.41903 14.25 5.84674 14.25 5.25C14.25 4.65326 14.0129 4.08097 13.591 3.65901C13.169 3.23705 12.5967 3 12 3ZM8.25 5.25C8.25 4.25544 8.64509 3.30161 9.34835 2.59835C10.0516 1.89509 11.0054 1.5 12 1.5C12.9946 1.5 13.9484 1.89509 14.6517 2.59835C15.3549 3.30161 15.75 4.25544 15.75 5.25C15.75 6.24456 15.3549 7.19839 14.6517 7.90165C13.9484 8.60491 12.9946 9 12 9C11.0054 9 10.0516 8.60491 9.34835 7.90165C8.64509 7.19839 8.25 6.24456 8.25 5.25ZM6 12.75C6.001 12.476 6.029 12.211 6.084 11.955L3.168 12.735C2.88254 12.8116 2.61496 12.9436 2.38055 13.1236C2.14614 13.3037 1.94949 13.5281 1.80184 13.7841C1.65419 14.0401 1.55842 14.3227 1.52001 14.6158C1.48161 14.9088 1.50131 15.2066 1.578 15.492L2.16 17.6655C2.31647 18.2487 2.58872 18.7944 2.96052 19.2702C3.33233 19.746 3.79608 20.1421 4.32417 20.4349C4.85225 20.7277 5.43386 20.9112 6.03436 20.9746C6.63486 21.0379 7.24196 20.9797 7.8195 20.8035C7.41833 20.4144 7.07349 19.9711 6.795 19.4865C6.08838 19.5547 5.38047 19.3701 4.79711 18.9656C4.21376 18.561 3.79277 17.9627 3.609 17.277L3.0255 15.102C2.97421 14.9099 3.00134 14.7052 3.10091 14.533C3.20049 14.3609 3.36437 14.2353 3.5565 14.184L6 13.53V12.75ZM16.329 20.847L16.179 20.805C16.5795 20.415 16.926 19.9725 17.205 19.4865C17.9116 19.5547 18.6195 19.3701 19.2029 18.9656C19.7862 18.561 20.2072 17.9627 20.391 17.277L20.973 15.102C21.0243 14.9101 20.9974 14.7056 20.8981 14.5335C20.7989 14.3614 20.6354 14.2357 20.4435 14.184L18 13.53V12.75C17.999 12.476 17.971 12.211 17.916 11.955L20.8305 12.735C21.1161 12.8114 21.3838 12.9434 21.6184 13.1233C21.853 13.3032 22.0498 13.5276 22.1976 13.7837C22.3454 14.0397 22.4413 14.3224 22.4798 14.6155C22.5183 14.9086 22.4987 15.2065 22.422 15.492L21.84 17.6655C21.5307 18.8179 20.7764 19.8002 19.7429 20.3965C18.7095 20.9929 17.4815 21.1559 16.329 20.847ZM3 7.5C3 7.10218 3.15804 6.72064 3.43934 6.43934C3.72064 6.15804 4.10218 6 4.5 6C4.89782 6 5.27936 6.15804 5.56066 6.43934C5.84196 6.72064 6 7.10218 6 7.5C6 7.89782 5.84196 8.27936 5.56066 8.56066C5.27936 8.84196 4.89782 9 4.5 9C4.10218 9 3.72064 8.84196 3.43934 8.56066C3.15804 8.27936 3 7.89782 3 7.5ZM4.5 4.5C3.70435 4.5 2.94129 4.81607 2.37868 5.37868C1.81607 5.94129 1.5 6.70435 1.5 7.5C1.5 8.29565 1.81607 9.05871 2.37868 9.62132C2.94129 10.1839 3.70435 10.5 4.5 10.5C5.29565 10.5 6.05871 10.1839 6.62132 9.62132C7.18393 9.05871 7.5 8.29565 7.5 7.5C7.5 6.70435 7.18393 5.94129 6.62132 5.37868C6.05871 4.81607 5.29565 4.5 4.5 4.5ZM19.5 6C19.1022 6 18.7206 6.15804 18.4393 6.43934C18.158 6.72064 18 7.10218 18 7.5C18 7.89782 18.158 8.27936 18.4393 8.56066C18.7206 8.84196 19.1022 9 19.5 9C19.8978 9 20.2794 8.84196 20.5607 8.56066C20.842 8.27936 21 7.89782 21 7.5C21 7.10218 20.842 6.72064 20.5607 6.43934C20.2794 6.15804 19.8978 6 19.5 6ZM16.5 7.5C16.5 6.70435 16.8161 5.94129 17.3787 5.37868C17.9413 4.81607 18.7044 4.5 19.5 4.5C20.2956 4.5 21.0587 4.81607 21.6213 5.37868C22.1839 5.94129 22.5 6.70435 22.5 7.5C22.5 8.29565 22.1839 9.05871 21.6213 9.62132C21.0587 10.1839 20.2956 10.5 19.5 10.5C18.7044 10.5 17.9413 10.1839 17.3787 9.62132C16.8161 9.05871 16.5 8.29565 16.5 7.5ZM9.75 10.5C9.15326 10.5 8.58097 10.7371 8.15901 11.159C7.73705 11.581 7.5 12.1533 7.5 12.75V16.5C7.5 17.6935 7.97411 18.8381 8.81802 19.682C9.66193 20.5259 10.8065 21 12 21C13.1935 21 14.3381 20.5259 15.182 19.682C16.0259 18.8381 16.5 17.6935 16.5 16.5V12.75C16.5 12.1533 16.2629 11.581 15.841 11.159C15.419 10.7371 14.8467 10.5 14.25 10.5H9.75ZM9 12.75C9 12.5511 9.07902 12.3603 9.21967 12.2197C9.36032 12.079 9.55109 12 9.75 12H14.25C14.4489 12 14.6397 12.079 14.7803 12.2197C14.921 12.3603 15 12.5511 15 12.75V16.5C15 17.2956 14.6839 18.0587 14.1213 18.6213C13.5587 19.1839 12.7956 19.5 12 19.5C11.2044 19.5 10.4413 19.1839 9.87868 18.6213C9.31607 18.0587 9 17.2956 9 16.5V12.75Z" fill="#003A6E"/>
</svg>
