<svg width="24" height="24" viewBox="0 0 24 24" fill="none" xmlns="http://www.w3.org/2000/svg">
<path d="M6 4C5.46957 4 4.96086 4.21071 4.58579 4.58578C4.21072 4.96085 4 5.46956 4 6C4 6.53043 4.21072 7.03914 4.58579 7.41421C4.96086 7.78928 5.46957 8 6 8C6.53043 8 7.03914 7.78928 7.41422 7.41421C7.78929 7.03914 8 6.53043 8 6C8 5.46956 7.78929 4.96085 7.41422 4.58578C7.03914 4.21071 6.53043 4 6 4ZM2 6C1.99904 5.02573 2.35369 4.08461 2.99738 3.35327C3.64107 2.62193 4.52954 2.15066 5.49605 2.02792C6.46255 1.90517 7.44062 2.13939 8.24669 2.6866C9.05276 3.23382 9.6314 4.05642 9.874 5H18.083L18.164 5.014C19.0054 5.1625 19.8001 5.50677 20.484 6.019C21.288 6.637 22 7.614 22 9C22 10.386 21.29 11.363 20.483 11.981C19.7994 12.4931 19.0051 12.8373 18.164 12.986L18.083 13H6C5.763 13 5.228 13.148 4.75 13.53C4.303 13.888 4 14.372 4 15C4 15.628 4.303 16.112 4.75 16.47C5.228 16.852 5.763 17 6 17H17V14.5L21.667 18L17 21.5V19H6C5.237 19 4.272 18.648 3.5 18.03C2.697 17.389 2 16.373 2 15C2 13.627 2.697 12.612 3.5 11.97C4.272 11.351 5.237 11 6 11H17.91C18.284 10.925 18.827 10.73 19.267 10.394C19.711 10.054 20 9.614 20 9C20 8.386 19.71 7.947 19.267 7.606C18.8633 7.30918 18.4005 7.10252 17.91 7H9.874C9.62827 7.94048 9.04864 8.75939 8.24333 9.3038C7.43802 9.8482 6.4621 10.0809 5.49778 9.95843C4.53346 9.83596 3.64669 9.3667 3.00303 8.63828C2.35937 7.90985 2.00284 6.97205 2 6Z" fill="#003A6E"/>
</svg>
