<svg width="23" height="17" viewBox="0 0 23 17" fill="none" xmlns="http://www.w3.org/2000/svg">
<path d="M5 2C4.71667 2 4.47934 1.904 4.288 1.712C4.09667 1.52 4.00067 1.28267 4 1C3.99934 0.717333 4.09534 0.48 4.288 0.288C4.48067 0.0960001 4.718 0 5 0H17C17.2833 0 17.521 0.0960001 17.713 0.288C17.905 0.48 18.0007 0.717333 18 1C17.9993 1.28267 17.9033 1.52033 17.712 1.713C17.5207 1.90567 17.2833 2.00133 17 2H5ZM5 6C4.71667 6 4.47934 5.904 4.288 5.712C4.09667 5.52 4.00067 5.28267 4 5C3.99934 4.71733 4.09534 4.48 4.288 4.288C4.48067 4.096 4.718 4 5 4H17C17.2833 4 17.521 4.096 17.713 4.288C17.905 4.48 18.0007 4.71733 18 5C17.9993 5.28267 17.9033 5.52033 17.712 5.713C17.5207 5.90567 17.2833 6.00133 17 6H5ZM5 10C4.71667 10 4.47934 9.904 4.288 9.712C4.09667 9.52 4.00067 9.28267 4 9C3.99934 8.71733 4.09534 8.48 4.288 8.288C4.48067 8.096 4.718 8 5 8H17C17.2833 8 17.521 8.096 17.713 8.288C17.905 8.48 18.0007 8.71733 18 9C17.9993 9.28267 17.9033 9.52033 17.712 9.713C17.5207 9.90567 17.2833 10.0013 17 10H5ZM1 2C0.71667 2 0.479337 1.904 0.288004 1.712C0.0966702 1.52 0.000670115 1.28267 3.44827e-06 1C-0.000663218 0.717333 0.0953369 0.48 0.288004 0.288C0.48067 0.0960001 0.718003 0 1 0C1.282 0 1.51967 0.0960001 1.713 0.288C1.90634 0.48 2.002 0.717333 2 1C1.998 1.28267 1.902 1.52033 1.712 1.713C1.522 1.90567 1.28467 2.00133 1 2ZM1 6C0.71667 6 0.479337 5.904 0.288004 5.712C0.0966702 5.52 0.000670115 5.28267 3.44827e-06 5C-0.000663218 4.71733 0.0953369 4.48 0.288004 4.288C0.48067 4.096 0.718003 4 1 4C1.282 4 1.51967 4.096 1.713 4.288C1.90634 4.48 2.002 4.71733 2 5C1.998 5.28267 1.902 5.52033 1.712 5.713C1.522 5.90567 1.28467 6.00133 1 6ZM1 10C0.71667 10 0.479337 9.904 0.288004 9.712C0.0966702 9.52 0.000670115 9.28267 3.44827e-06 9C-0.000663218 8.71733 0.0953369 8.48 0.288004 8.288C0.48067 8.096 0.718003 8 1 8C1.282 8 1.51967 8.096 1.713 8.288C1.90634 8.48 2.002 8.71733 2 9C1.998 9.28267 1.902 9.52033 1.712 9.713C1.522 9.90567 1.28467 10.0013 1 10Z" fill="#003A6E"/>
<circle cx="16" cy="10" r="6.59615" fill="white" stroke="#003A6E" stroke-width="0.807692"/>
<path d="M20.4526 7.29609L16.4142 5.94994C16.3451 5.92691 16.2704 5.92691 16.2013 5.94994L12.1628 7.29609C12.0958 7.31843 12.0376 7.36129 11.9963 7.41859C11.955 7.4759 11.9327 7.54475 11.9327 7.61538V10.9808C11.9327 11.07 11.9682 11.1556 12.0313 11.2187C12.0944 11.2819 12.18 11.3173 12.2693 11.3173C12.3585 11.3173 12.4441 11.2819 12.5072 11.2187C12.5704 11.1556 12.6058 11.07 12.6058 10.9808V8.08233L14.0189 8.55306C13.6434 9.15959 13.524 9.89032 13.6869 10.5848C13.8498 11.2793 14.2816 11.8807 14.8875 12.2571C14.1303 12.5541 13.4758 13.0913 12.997 13.8258C12.9721 13.8628 12.9549 13.9044 12.9462 13.9481C12.9375 13.9919 12.9376 14.0369 12.9465 14.0806C12.9553 14.1243 12.9728 14.1658 12.9979 14.2027C13.0229 14.2396 13.0551 14.2712 13.0924 14.2955C13.1298 14.3199 13.1716 14.3366 13.2155 14.3446C13.2593 14.3527 13.3044 14.352 13.3479 14.3425C13.3915 14.333 13.4328 14.3149 13.4693 14.2893C13.5058 14.2637 13.5369 14.2311 13.5607 14.1934C14.1947 13.2209 15.1959 12.6635 16.3077 12.6635C17.4196 12.6635 18.4208 13.2209 19.0547 14.1934C19.1041 14.2668 19.1803 14.3178 19.267 14.3354C19.3537 14.353 19.4437 14.3358 19.5178 14.2875C19.5919 14.2392 19.6439 14.1636 19.6628 14.0773C19.6816 13.9909 19.6657 13.9005 19.6184 13.8258C19.1397 13.0913 18.4826 12.5541 17.7279 12.2571C18.3333 11.8807 18.7647 11.2797 18.9275 10.5857C19.0904 9.89174 18.9714 9.16152 18.5966 8.55517L20.4526 7.93678C20.5197 7.91445 20.578 7.8716 20.6193 7.81429C20.6606 7.75699 20.6828 7.68813 20.6828 7.61749C20.6828 7.54684 20.6606 7.47799 20.6193 7.42068C20.578 7.36337 20.5197 7.32052 20.4526 7.2982V7.29609ZM18.327 9.97115C18.3271 10.2904 18.2515 10.6051 18.1064 10.8894C17.9613 11.1738 17.7509 11.4197 17.4923 11.607C17.2338 11.7943 16.9346 11.9176 16.6191 11.9668C16.3037 12.016 15.9811 11.9898 15.6778 11.8902C15.3745 11.7906 15.0992 11.6205 14.8743 11.3939C14.6495 11.1673 14.4816 10.8906 14.3844 10.5865C14.2872 10.2825 14.2635 9.95968 14.3152 9.64467C14.3669 9.32965 14.4925 9.03139 14.6818 8.77434L16.2013 9.27915C16.2704 9.30218 16.3451 9.30218 16.4142 9.27915L17.9336 8.77434C18.1893 9.12099 18.3271 9.54043 18.327 9.97115ZM16.3077 8.60691L13.3336 7.61538L16.3077 6.62386L19.2819 7.61538L16.3077 8.60691Z" fill="#003A6E"/>
</svg>
