<svg width="24" height="24" viewBox="0 0 24 24" fill="none" xmlns="http://www.w3.org/2000/svg">
<path d="M20.638 14.136L20.539 13.141L20.506 13.144L20.474 13.15L20.638 14.136ZM20.638 14.136L20.738 15.131L20.771 15.128L20.803 15.123L20.638 14.136ZM16.598 19.618L17.231 18.844L17.223 18.838L16.598 19.618ZM16.598 19.618L15.965 20.392L15.973 20.399L16.598 19.618ZM7.40202 19.618L6.76902 18.845L6.75302 18.858L6.73802 18.871L7.40202 19.618ZM7.40202 19.618L8.03502 20.393L8.05102 20.38L8.06602 20.366L7.40202 19.618ZM3.36102 9.864V8.864H3.31102L3.26202 8.869L3.36102 9.864ZM3.36102 9.864V10.864H3.41102L3.46102 10.859L3.36102 9.864ZM15.131 3.261C15.1145 3.06865 15.0908 2.87689 15.062 2.686C15.0312 2.47586 14.967 2.27197 14.872 2.082L13.095 3C13.072 2.955 13.077 2.939 13.09 3.018C13.105 3.107 13.118 3.231 13.141 3.461L15.131 3.261ZM15.226 4.211C15.289 4.293 15.268 4.33 15.233 4.135C15.2 3.949 15.174 3.688 15.131 3.261L13.14 3.46C13.18 3.854 13.214 4.208 13.265 4.49C13.314 4.76 13.4 5.115 13.635 5.423L15.226 4.211ZM15.226 4.211L13.635 5.423C13.849 5.70385 14.1336 5.92303 14.4597 6.05827C14.7859 6.19352 15.1421 6.24 15.492 6.193L15.226 4.211ZM15.964 3.606C15.7399 3.79541 15.5094 3.97718 15.273 4.151C15.11 4.264 15.123 4.224 15.226 4.211L15.492 6.193C15.876 6.141 16.188 5.951 16.414 5.793C16.649 5.631 16.924 5.405 17.23 5.154L15.964 3.606ZM16.98 2.956C16.7787 3.02296 16.5894 3.12153 16.419 3.248C16.279 3.348 16.122 3.477 15.964 3.606L17.23 5.154C17.409 5.008 17.506 4.929 17.58 4.877C17.645 4.83 17.636 4.846 17.589 4.861L16.98 2.956ZM18.384 3.026C17.9399 2.83355 17.4411 2.80867 16.98 2.956L17.589 4.861L18.384 3.026ZM19.33 3.774C19.1954 3.63556 19.0563 3.50149 18.913 3.372C18.7558 3.22927 18.5769 3.11247 18.383 3.026L17.589 4.861C17.543 4.841 17.536 4.825 17.596 4.878C17.664 4.938 17.753 5.025 17.916 5.188L19.33 3.774ZM20.224 4.668L19.33 3.774L17.916 5.188L18.81 6.082L20.224 4.668ZM20.972 5.614C20.8856 5.42009 20.7688 5.24118 20.626 5.084C20.4965 4.94106 20.3624 4.80232 20.224 4.668L18.81 6.083C18.973 6.246 19.06 6.335 19.12 6.403C19.173 6.463 19.157 6.456 19.137 6.41L20.972 5.614ZM21.042 7.018C21.1893 6.55695 21.1645 6.05811 20.972 5.614L19.137 6.41L21.042 7.018ZM20.392 8.034C20.5162 7.88621 20.6356 7.73447 20.75 7.579C20.856 7.431 20.97 7.247 21.042 7.018L19.137 6.41C19.152 6.363 19.167 6.353 19.121 6.419C19.069 6.492 18.991 6.589 18.844 6.768L20.392 8.034ZM19.787 8.773C19.774 8.876 19.734 8.888 19.847 8.725C19.954 8.57 20.12 8.366 20.392 8.034L18.844 6.768C18.594 7.074 18.367 7.349 18.204 7.584C18.047 7.81 17.857 8.122 17.805 8.506L19.787 8.773ZM19.787 8.773L17.805 8.506C17.758 8.85595 17.8045 9.21211 17.9397 9.53828C18.075 9.86444 18.2942 10.149 18.575 10.363L19.787 8.773ZM20.737 8.868C20.4446 8.84354 20.1531 8.80919 19.863 8.765C19.668 8.73 19.705 8.71 19.787 8.773L18.575 10.363C18.883 10.598 19.237 10.684 19.509 10.733C19.79 10.783 20.144 10.818 20.538 10.858L20.737 8.868ZM21.916 9.126C21.7261 9.031 21.5222 8.96686 21.312 8.936C21.1211 8.90717 20.9294 8.88449 20.737 8.868L20.538 10.858C20.6861 10.871 20.8338 10.8877 20.981 10.908C21.061 10.922 21.044 10.927 20.999 10.904L21.916 9.126ZM22.859 10.169C22.6813 9.71866 22.3462 9.34807 21.916 9.126L21 10.906L22.859 10.169ZM22.999 11.367C22.999 11.163 22.999 10.96 22.988 10.788C22.9779 10.5757 22.934 10.3664 22.858 10.168L21 10.906C20.982 10.859 20.988 10.843 20.994 10.923C21 11.013 21 11.138 21 11.369L22.999 11.367ZM22.999 12.631V11.367H20.999V12.631H22.999ZM22.859 13.829C22.947 13.606 22.976 13.392 22.988 13.209C22.999 13.038 22.999 12.835 22.999 12.631H20.999C20.999 12.862 20.999 12.987 20.993 13.077C20.987 13.157 20.981 13.141 20.999 13.094L22.859 13.829ZM21.916 14.872C22.3462 14.6499 22.6813 14.2793 22.859 13.829L21 13.095L21.916 14.872ZM20.737 15.13C20.941 15.11 21.142 15.09 21.312 15.062C21.492 15.032 21.702 14.982 21.916 14.872L21 13.095C21.044 13.072 21.061 13.077 20.982 13.09C20.8349 13.1111 20.6871 13.1281 20.539 13.141L20.737 15.13ZM19.788 15.225C19.705 15.288 19.668 15.268 19.863 15.233C20.049 15.2 20.31 15.173 20.737 15.13L20.538 13.14C20.145 13.18 19.79 13.214 19.509 13.265C19.238 13.314 18.883 13.4 18.575 13.635L19.788 15.225ZM19.788 15.225L18.575 13.635C18.2942 13.849 18.075 14.1336 17.9397 14.4597C17.8045 14.7859 17.758 15.142 17.805 15.492L19.788 15.225ZM20.392 15.963C20.2026 15.7392 20.0209 15.5091 19.847 15.273C19.734 15.11 19.775 15.122 19.788 15.225L17.805 15.492C17.857 15.876 18.047 16.188 18.205 16.414C18.368 16.649 18.594 16.924 18.844 17.23L20.392 15.963ZM21.042 16.979C20.975 16.778 20.8764 16.589 20.75 16.419C20.65 16.278 20.521 16.122 20.392 15.963L18.844 17.23C18.99 17.409 19.069 17.505 19.121 17.579C19.168 17.644 19.153 17.636 19.137 17.589L21.042 16.979ZM20.972 18.384C21.1647 17.9396 21.1896 17.4404 21.042 16.979L19.137 17.589L20.972 18.384ZM20.224 19.33C20.369 19.185 20.512 19.043 20.626 18.913C20.746 18.775 20.876 18.604 20.972 18.383L19.137 17.588C19.157 17.542 19.173 17.536 19.12 17.596C19.06 17.664 18.973 17.752 18.81 17.916L20.224 19.33ZM19.33 20.223L20.224 19.33L18.81 17.916L17.916 18.809L19.33 20.223ZM18.384 20.972C18.578 20.8852 18.7569 20.7681 18.914 20.625C19.043 20.512 19.186 20.368 19.33 20.223L17.916 18.809C17.8123 18.9153 17.7055 19.0187 17.596 19.119C17.536 19.173 17.543 19.157 17.589 19.137L18.384 20.972ZM16.98 21.042C17.4411 21.1893 17.9399 21.1645 18.384 20.972L17.589 19.137L16.98 21.042ZM15.964 20.392C16.122 20.521 16.278 20.65 16.419 20.75C16.567 20.855 16.751 20.969 16.98 21.042L17.589 19.137C17.636 19.152 17.645 19.167 17.579 19.121C17.4601 19.0319 17.3438 18.9396 17.23 18.844L15.964 20.392ZM15.226 19.788C15.123 19.773 15.11 19.733 15.273 19.846C15.428 19.954 15.631 20.119 15.963 20.391L17.23 18.844C16.924 18.593 16.649 18.367 16.414 18.204C16.188 18.046 15.876 17.857 15.492 17.805L15.226 19.788ZM15.226 19.788L15.492 17.805C15.1421 17.758 14.7859 17.8045 14.4597 17.9397C14.1336 18.075 13.849 18.2942 13.635 18.575L15.226 19.788ZM15.13 20.737C15.173 20.31 15.2 20.048 15.233 19.863C15.268 19.668 15.288 19.704 15.225 19.787L13.635 18.574C13.4 18.882 13.314 19.237 13.265 19.508C13.215 19.79 13.181 20.144 13.141 20.538L15.13 20.737ZM14.871 21.916C14.981 21.702 15.031 21.492 15.061 21.312C15.091 21.142 15.109 20.941 15.13 20.737L13.141 20.538C13.1278 20.6865 13.1105 20.8335 13.089 20.981C13.076 21.061 13.071 21.044 13.094 20.999L14.871 21.916ZM13.83 22.859C14.2796 22.6809 14.6494 22.3459 14.871 21.916L13.095 21L13.83 22.859ZM12.63 22.999C12.835 22.999 13.038 22.999 13.21 22.988C13.392 22.976 13.606 22.949 13.83 22.859L13.095 21C13.142 20.982 13.158 20.988 13.078 20.994C12.9294 21.0001 12.7807 21.0021 12.632 21L12.63 22.999ZM11.367 22.999H12.63L12.631 20.999H11.367V22.999ZM10.169 22.859C10.392 22.947 10.606 22.976 10.789 22.988C10.96 22.999 11.163 22.999 11.367 22.999V20.999C11.136 20.999 11.011 20.999 10.921 20.993C10.841 20.987 10.857 20.981 10.904 20.999L10.169 22.859ZM9.12602 21.916C9.34809 22.3462 9.71868 22.6813 10.169 22.859L10.904 20.999L9.12602 21.916ZM8.86802 20.737C8.88802 20.941 8.90802 21.142 8.93602 21.312C8.96602 21.492 9.01602 21.702 9.12602 21.916L10.906 21C10.929 21.044 10.924 21.061 10.911 20.982C10.8899 20.8348 10.8729 20.6871 10.86 20.539L8.86802 20.737ZM8.77302 19.787C8.71002 19.705 8.73002 19.667 8.76502 19.863C8.79802 20.048 8.82502 20.31 8.86802 20.737L10.858 20.538C10.818 20.144 10.784 19.79 10.733 19.508C10.684 19.238 10.598 18.883 10.363 18.575L8.77302 19.787ZM8.77302 19.787L10.363 18.575C10.149 18.2942 9.86446 18.075 9.5383 17.9397C9.21213 17.8045 8.85597 17.758 8.50602 17.805L8.77302 19.787ZM8.03402 20.392C8.36702 20.12 8.57002 19.954 8.72502 19.847C8.88802 19.734 8.87602 19.774 8.77302 19.787L8.50602 17.805C8.12202 17.857 7.81002 18.047 7.58402 18.205C7.34902 18.367 7.07402 18.593 6.76802 18.844L8.03402 20.392ZM7.01802 21.042C7.21932 20.975 7.40869 20.8765 7.57902 20.75C7.71902 20.65 7.87602 20.521 8.03402 20.392L6.76902 18.845C6.65495 18.9406 6.53924 19.0329 6.42002 19.122C6.35502 19.169 6.36402 19.154 6.41102 19.138L7.01802 21.042ZM5.61402 20.972C6.05813 21.1645 6.55697 21.1893 7.01802 21.042L6.40902 19.137L5.61402 20.972ZM4.66702 20.224C4.81202 20.369 4.95502 20.512 5.08502 20.626C5.22202 20.746 5.39302 20.877 5.61502 20.973L6.40902 19.137C6.45502 19.157 6.46202 19.173 6.40202 19.12C6.2925 19.0197 6.18579 18.9163 6.08202 18.81L4.66702 20.224ZM3.77402 19.33L4.66802 20.224L6.08202 18.81L5.18802 17.916L3.77402 19.33ZM3.02602 18.384C3.12102 18.604 3.25202 18.776 3.37202 18.914C3.48602 19.043 3.62902 19.186 3.77402 19.33L5.18802 17.916C5.08174 17.8122 4.97836 17.7055 4.87802 17.596C4.82502 17.536 4.84102 17.543 4.86102 17.589L3.02602 18.384ZM2.95602 16.98C2.80869 17.4411 2.83357 17.9399 3.02602 18.384L4.86102 17.589L2.95602 16.98ZM3.60602 15.964C3.48184 16.1118 3.36244 16.2635 3.24802 16.419C3.12155 16.5893 3.02298 16.7787 2.95602 16.98L4.86102 17.589C4.84502 17.636 4.83102 17.645 4.87702 17.579C4.92902 17.506 5.00702 17.409 5.15402 17.23L3.60602 15.964ZM4.21002 15.225C4.22402 15.122 4.26402 15.11 4.15102 15.273C4.04402 15.428 3.87802 15.632 3.60602 15.964L5.15402 17.23C5.40402 16.924 5.63102 16.649 5.79402 16.414C5.95102 16.188 6.14102 15.876 6.19302 15.492L4.21002 15.225ZM4.21002 15.225L6.19302 15.492C6.24002 15.142 6.19354 14.7859 6.05829 14.4597C5.92305 14.1336 5.70387 13.849 5.42302 13.635L4.21002 15.225ZM3.26002 15.13C3.68802 15.173 3.95002 15.2 4.13502 15.233C4.33002 15.268 4.29302 15.288 4.21002 15.225L5.42302 13.635C5.11502 13.4 4.76102 13.314 4.48902 13.265C4.20802 13.215 3.85402 13.18 3.45902 13.14L3.26002 15.13ZM2.08202 14.872C2.29602 14.982 2.50602 15.032 2.68602 15.062C2.85602 15.09 3.05702 15.111 3.26102 15.131L3.45902 13.14C3.31092 13.1275 3.16419 13.1108 3.01702 13.09C2.93702 13.076 2.95402 13.071 2.99902 13.094L2.08202 14.872ZM1.14002 13.83C1.31775 14.2803 1.65281 14.6509 2.08302 14.873L3.00002 13.095L1.14002 13.83ZM1.00002 12.632C1.00002 12.836 1.00002 13.039 1.01102 13.211C1.02302 13.393 1.05102 13.607 1.14102 13.831L3.00002 13.094C3.01802 13.141 3.01202 13.157 3.00702 13.077C3.00056 12.9288 2.99823 12.7804 3.00002 12.632H1.00002ZM1.00002 11.368V12.632H3.00002V11.368H1.00002ZM1.14002 10.169C1.06437 10.3675 1.02082 10.5768 1.01102 10.789C0.99902 10.961 1.00002 11.164 1.00002 11.369H3.00002C3.00002 11.137 3.00002 11.012 3.00702 10.922C3.01202 10.842 3.01802 10.858 3.00002 10.905L1.14002 10.169ZM2.08302 9.128C1.65317 9.34958 1.31816 9.7194 1.14002 10.169L3.00002 10.905L2.08302 9.128ZM3.26202 8.868C3.05802 8.889 2.85702 8.908 2.68702 8.938C2.50702 8.968 2.29702 9.018 2.08302 9.128L3.00002 10.905C2.95502 10.928 2.93902 10.923 3.01802 10.91C3.16518 10.8889 3.31291 10.8719 3.46102 10.859L3.26202 8.868ZM4.21202 8.774C4.29502 8.711 4.33202 8.731 4.13602 8.766C3.95102 8.799 3.68902 8.826 3.26202 8.869L3.46102 10.859C3.85402 10.819 4.20902 10.785 4.49102 10.734C4.76202 10.685 5.11702 10.599 5.42502 10.364L4.21202 8.774ZM4.21202 8.774L5.42502 10.364C5.70569 10.1499 5.92467 9.86528 6.05974 9.53912C6.1948 9.21296 6.24113 8.85686 6.19402 8.507L4.21202 8.774ZM3.60702 8.035C3.87902 8.367 4.04502 8.571 4.15302 8.726C4.26602 8.889 4.22602 8.877 4.21202 8.774L6.19402 8.507C6.14202 8.123 5.95302 7.812 5.79502 7.585C5.63202 7.35 5.40502 7.075 5.15502 6.769L3.60702 8.035ZM2.95702 7.018C3.03002 7.248 3.14302 7.431 3.24902 7.58C3.34902 7.72 3.47802 7.877 3.60702 8.035L5.15502 6.769C5.05945 6.65493 4.96708 6.53922 4.87802 6.42C4.83102 6.355 4.84702 6.363 4.86202 6.41L2.95702 7.018ZM3.02702 5.615C2.83481 6.05882 2.80995 6.55725 2.95702 7.018L4.86202 6.41L3.02702 5.615ZM3.77502 4.668C3.63002 4.813 3.48702 4.955 3.37302 5.085C3.23029 5.24218 3.11349 5.42109 3.02702 5.615L4.86202 6.41C4.84202 6.456 4.82602 6.463 4.87902 6.402C4.93902 6.334 5.02602 6.246 5.18902 6.082L3.77502 4.668ZM4.66902 3.775L3.77502 4.668L5.18902 6.082L6.08402 5.189L4.66902 3.775ZM5.61502 3.026C5.42104 3.11278 5.24213 3.22991 5.08502 3.373C4.94208 3.50251 4.80334 3.63658 4.66902 3.775L6.08402 5.189C6.24702 5.025 6.33502 4.938 6.40302 4.879C6.46302 4.825 6.45602 4.841 6.41002 4.861L5.61502 3.026ZM7.01902 2.956C6.55797 2.80867 6.05913 2.83355 5.61502 3.026L6.41002 4.861L7.01902 2.956ZM8.03402 3.606C7.87602 3.477 7.72102 3.349 7.58002 3.249C7.40976 3.12218 7.22039 3.02327 7.01902 2.956L6.41002 4.861C6.36302 4.846 6.35402 4.831 6.42002 4.877C6.49302 4.93 6.59002 5.008 6.76902 5.155L8.03402 3.606ZM8.77402 4.211C8.87702 4.225 8.88902 4.265 8.72602 4.152C8.48994 3.97817 8.25981 3.7964 8.03602 3.607L6.76902 5.155C7.07502 5.405 7.34902 5.631 7.58402 5.795C7.81002 5.952 8.12202 6.141 8.50602 6.193L8.77402 4.211ZM8.77402 4.211L8.50702 6.193C8.85697 6.24 9.21313 6.19352 9.5393 6.05827C9.86546 5.92303 10.15 5.70385 10.364 5.423L8.77402 4.211ZM8.86902 3.261C8.82602 3.689 8.79902 3.951 8.76602 4.136C8.73102 4.331 8.71102 4.294 8.77402 4.211L10.364 5.423C10.599 5.115 10.685 4.761 10.734 4.49C10.784 4.209 10.82 3.854 10.859 3.46L8.86902 3.261ZM9.12702 2.083C9.03202 2.27297 8.96788 2.47686 8.93702 2.687C8.90902 2.857 8.88902 3.058 8.86902 3.262L10.859 3.46C10.872 3.31194 10.8887 3.16523 10.909 3.018C10.923 2.938 10.928 2.956 10.905 3L9.12702 2.083ZM10.17 1.14C9.71968 1.31773 9.34909 1.65279 9.12702 2.083L10.905 3L10.17 1.14ZM11.368 1C11.164 1 10.961 1 10.789 1.011C10.5768 1.0208 10.3675 1.06435 10.169 1.14L10.906 3C10.859 3.018 10.843 3.012 10.923 3.007C11.013 3.001 11.138 3 11.369 3L11.368 1ZM12.632 1H11.368V3H12.632V1ZM13.83 1.14C13.6315 1.06435 13.4222 1.0208 13.21 1.011C13.04 0.999 12.837 1 12.633 1V3C12.864 3 12.989 3 13.079 3.007C13.159 3.012 13.142 3.018 13.095 3L13.83 1.14ZM14.873 2.083C14.651 1.65279 14.2804 1.31773 13.83 1.14L13.095 3L14.873 2.083ZM15 12C15 12.7956 14.6839 13.5587 14.1213 14.1213C13.5587 14.6839 12.7957 15 12 15V17C13.3261 17 14.5979 16.4732 15.5356 15.5355C16.4732 14.5979 17 13.3261 17 12H15ZM12 9C12.7957 9 13.5587 9.31607 14.1213 9.87868C14.6839 10.4413 15 11.2044 15 12H17C17 10.6739 16.4732 9.40215 15.5356 8.46447C14.5979 7.52678 13.3261 7 12 7V9ZM9.00002 12C9.00002 11.2044 9.31609 10.4413 9.8787 9.87868C10.4413 9.31607 11.2044 9 12 9V7C10.6739 7 9.40217 7.52678 8.46449 8.46447C7.5268 9.40215 7.00002 10.6739 7.00002 12H9.00002ZM12 15C11.2044 15 10.4413 14.6839 9.8787 14.1213C9.31609 13.5587 9.00002 12.7956 9.00002 12H7.00002C7.00002 13.3261 7.5268 14.5979 8.46449 15.5355C9.40217 16.4732 10.6739 17 12 17V15Z" fill="#003A6E"/>
</svg>
