<svg width="18" height="17" viewBox="0 0 18 17" fill="none" xmlns="http://www.w3.org/2000/svg">
<path d="M16.6977 3.40703L9.19766 0.907032C9.06936 0.864262 8.93064 0.864262 8.80234 0.907032L1.30234 3.40703C1.17789 3.44852 1.06965 3.52811 0.992956 3.63453C0.916258 3.74096 0.87499 3.86882 0.875 4V10.25C0.875 10.4158 0.940848 10.5747 1.05806 10.6919C1.17527 10.8092 1.33424 10.875 1.5 10.875C1.66576 10.875 1.82473 10.8092 1.94194 10.6919C2.05915 10.5747 2.125 10.4158 2.125 10.25V4.86719L4.74922 5.74141C4.052 6.86782 3.83029 8.22488 4.13276 9.51461C4.43524 10.8043 5.23718 11.9213 6.3625 12.6203C4.95625 13.1719 3.74062 14.1695 2.85156 15.5336C2.80532 15.6023 2.77321 15.6795 2.75708 15.7608C2.74095 15.842 2.74113 15.9257 2.75761 16.0068C2.77409 16.088 2.80654 16.1651 2.85307 16.2336C2.89961 16.3021 2.9593 16.3607 3.02867 16.406C3.09805 16.4512 3.17573 16.4822 3.25719 16.4972C3.33866 16.5122 3.42229 16.5108 3.50322 16.4932C3.58414 16.4755 3.66076 16.442 3.72861 16.3945C3.79646 16.3469 3.85418 16.2864 3.89844 16.2164C5.07578 14.4102 6.93516 13.375 9 13.375C11.0648 13.375 12.9242 14.4102 14.1016 16.2164C14.1932 16.3527 14.3348 16.4473 14.4958 16.48C14.6567 16.5127 14.824 16.4807 14.9616 16.391C15.0991 16.3013 15.1958 16.1611 15.2308 16.0006C15.2657 15.8402 15.2362 15.6724 15.1484 15.5336C14.2594 14.1695 13.0391 13.1719 11.6375 12.6203C12.7617 11.9214 13.5629 10.8051 13.8653 9.51631C14.1678 8.22752 13.9468 6.87139 13.2508 5.74531L16.6977 4.59688C16.8221 4.55541 16.9304 4.47583 17.0071 4.3694C17.0839 4.26298 17.1251 4.13511 17.1251 4.00391C17.1251 3.87271 17.0839 3.74484 17.0071 3.63841C16.9304 3.53198 16.8221 3.4524 16.6977 3.41094V3.40703ZM12.75 8.375C12.7502 8.96786 12.6098 9.55231 12.3403 10.0804C12.0709 10.6085 11.6801 11.0652 11.1999 11.413C10.7198 11.7608 10.1641 11.9898 9.57833 12.0812C8.99256 12.1726 8.39347 12.1239 7.83019 11.9389C7.26692 11.754 6.75553 11.4381 6.33796 11.0173C5.9204 10.5964 5.60857 10.0826 5.42805 9.51786C5.24754 8.95316 5.20349 8.3537 5.29952 7.76867C5.39554 7.18364 5.62891 6.62972 5.98047 6.15234L8.80234 7.08984C8.93064 7.13261 9.06936 7.13261 9.19766 7.08984L12.0195 6.15234C12.4943 6.79612 12.7503 7.57509 12.75 8.375ZM9 5.84141L3.47656 4L9 2.15859L14.5234 4L9 5.84141Z" fill="#003A6E"/>
</svg>
