<svg width="23" height="23" viewBox="0 0 23 23" fill="none" xmlns="http://www.w3.org/2000/svg">
<path d="M20.6429 12H14.3571C14.1488 12 13.9489 11.9172 13.8016 11.7699C13.6542 11.6225 13.5714 11.4227 13.5714 11.2143V1.78572C13.5714 1.57733 13.6542 1.37748 13.8016 1.23013C13.9489 1.08278 14.1488 1 14.3571 1H20.6429C20.8512 1 21.0511 1.08278 21.1984 1.23013C21.3458 1.37748 21.4286 1.57733 21.4286 1.78572V11.2143C21.4286 11.4227 21.3458 11.6225 21.1984 11.7699C21.0511 11.9172 20.8512 12 20.6429 12ZM20.6429 21.4286H14.3571C14.1488 21.4286 13.9489 21.3458 13.8016 21.1984C13.6542 21.0511 13.5714 20.8512 13.5714 20.6429V17.4843C13.5714 17.2759 13.6542 17.0761 13.8016 16.9287C13.9489 16.7814 14.1488 16.6986 14.3571 16.6986H20.6429C20.8512 16.6986 21.0511 16.7814 21.1984 16.9287C21.3458 17.0761 21.4286 17.2759 21.4286 17.4843V20.6429C21.4286 20.8512 21.3458 21.0511 21.1984 21.1984C21.0511 21.3458 20.8512 21.4286 20.6429 21.4286ZM8.07143 21.4286H1.78571C1.57733 21.4286 1.37748 21.3458 1.23013 21.1984C1.08278 21.0511 1 20.8512 1 20.6429V11.2143C1 11.0059 1.08278 10.8061 1.23013 10.6587C1.37748 10.5114 1.57733 10.4286 1.78571 10.4286H8.07143C8.27981 10.4286 8.47966 10.5114 8.62701 10.6587C8.77436 10.8061 8.85714 11.0059 8.85714 11.2143V20.6429C8.85714 20.8512 8.77436 21.0511 8.62701 21.1984C8.47966 21.3458 8.27981 21.4286 8.07143 21.4286ZM8.07143 5.73H1.78571C1.57733 5.73 1.37748 5.64722 1.23013 5.49987C1.08278 5.35252 1 5.15267 1 4.94429V1.78572C1 1.57733 1.08278 1.37748 1.23013 1.23013C1.37748 1.08278 1.57733 1 1.78571 1H8.07143C8.27981 1 8.47966 1.08278 8.62701 1.23013C8.77436 1.37748 8.85714 1.57733 8.85714 1.78572V4.94429C8.85714 5.15267 8.77436 5.35252 8.62701 5.49987C8.47966 5.64722 8.27981 5.73 8.07143 5.73Z" stroke="#003A6E" stroke-width="1.57143" stroke-linecap="round" stroke-linejoin="round"/>
</svg>
