<svg width="19" height="18" viewBox="0 0 19 18" fill="none" xmlns="http://www.w3.org/2000/svg">
<path d="M9.20697 1.21552C4.90813 1.21552 1.42249 4.70116 1.42249 9C1.42249 13.2988 4.90813 16.7845 9.20697 16.7845C13.5058 16.7845 16.9915 13.2988 16.9915 9C16.9915 4.70116 13.5058 1.21552 9.20697 1.21552ZM9.20697 15.4639C5.63792 15.4639 2.74307 12.569 2.74307 9C2.74307 7.45353 3.28694 6.03216 4.19397 4.9201L13.2869 14.013C12.1748 14.92 10.7534 15.4639 9.20697 15.4639ZM14.22 13.0799L5.12707 3.987C6.23913 3.07997 7.6605 2.5361 9.20697 2.5361C12.776 2.5361 15.6709 5.43095 15.6709 9C15.6709 10.5465 15.127 11.9678 14.22 13.0799Z" fill="#DC2626"/>
</svg>
