<svg width="16" height="16" viewBox="0 0 16 16" fill="none" xmlns="http://www.w3.org/2000/svg">
<path d="M8.20697 0.215515C3.90813 0.215515 0.422485 3.70116 0.422485 8C0.422485 12.2988 3.90813 15.7845 8.20697 15.7845C12.5058 15.7845 15.9915 12.2988 15.9915 8C15.9915 3.70116 12.5058 0.215515 8.20697 0.215515ZM8.20697 14.4639C4.63792 14.4639 1.74307 11.569 1.74307 8C1.74307 6.45353 2.28694 5.03216 3.19397 3.9201L12.2869 13.013C11.1748 13.92 9.75344 14.4639 8.20697 14.4639ZM13.22 12.0799L4.12707 2.987C5.23913 2.07997 6.6605 1.5361 8.20697 1.5361C11.776 1.5361 14.6709 4.43095 14.6709 8C14.6709 9.54647 14.127 10.9678 13.22 12.0799Z" fill="white"/>
</svg>
