<svg width="22" height="22" viewBox="0 0 22 22" fill="none" xmlns="http://www.w3.org/2000/svg">
<path fill-rule="evenodd" clip-rule="evenodd" d="M11 0C4.925 0 0 4.925 0 11C0 17.075 4.925 22 11 22C17.075 22 22 17.075 22 11C22 4.925 17.075 0 11 0ZM2 11C2 13.09 2.713 15.014 3.908 16.542C4.74744 15.4401 5.83015 14.5471 7.07164 13.9327C8.31312 13.3183 9.6798 12.9991 11.065 13C12.4324 12.9984 13.7821 13.3091 15.0111 13.9084C16.2402 14.5077 17.3162 15.3797 18.157 16.458C19.0234 15.3216 19.6068 13.9952 19.8589 12.5886C20.111 11.182 20.0244 9.73553 19.6065 8.36898C19.1886 7.00243 18.4512 5.75505 17.4555 4.73004C16.4598 3.70503 15.2343 2.93186 13.8804 2.47451C12.5265 2.01716 11.0832 1.88877 9.66986 2.09997C8.25652 2.31117 6.91379 2.85589 5.75277 3.68905C4.59175 4.52222 3.64581 5.61987 2.99323 6.8912C2.34065 8.16252 2.00018 9.57097 2 11ZM11 20C8.93391 20.0033 6.93014 19.2926 5.328 17.988C5.97281 17.0646 6.83119 16.3107 7.83008 15.7905C8.82896 15.2702 9.93876 14.999 11.065 15C12.1772 14.999 13.2735 15.2635 14.263 15.7713C15.2524 16.2792 16.1064 17.0158 16.754 17.92C15.1395 19.267 13.1026 20.0033 11 20Z" fill="#003A6E"/>
</svg>
